# xmcd
#
# Track frame offsets:
#	150
#	12600
#	28817
#	50137
#	65432
#	82222
#	102755
#	118962
#	135721
#	166276
#	180978
#	193335
#	209607
#	228918
#	261895
#
# Disc length: 4439 seconds
#
# Revision: 1
# Processed by: cddbd v1.4PL0 Copyright (c) Steve Scherf et al.
# Submitted via: audiograbber 1.81.03
#
DISCID=e211550f
DTITLE=Various Artist - Cliff's Picks-Antone's Records
DYEAR=1900
DGENRE=
TTITLE0=Doyle Bramhall - Too Sorry
TTITLE1=Toni Price - Chain Of Love
TTITLE2=Miss Lavelle White - You Gonna Make Me Cry
TTITLE3=Kim Wilson - If I Should Lose You
TTITLE4=Sue Foley - Gone Blind
TTITLE5=Matt Murphy - Way Down South
TTITLE6=ZuZu Bollin - Hey Little Girl
TTITLE7=Lazy Lester - Irene
TTITLE8=James Cotton - Call It Stormy Monday
TTITLE9=Barbara Lynn - I'm A Good Woman
TTITLE10=Doug Sahm - She Put The Hurt In Me
TTITLE11=Marcia Ball, Lou Ann Barton and Angela Strehli - I Idolize You
TTITLE12=Eddie Taylor - Big Town Playboy
TTITLE13=Pinetop Perkins - Ida B
TTITLE14=Clifford Antone - Interview
EXTD=Antone's Records TMG-ANT 0046
EXTT0=
EXTT1=
EXTT2=
EXTT3=
EXTT4=
EXTT5=
EXTT6=
EXTT7=
EXTT8=
EXTT9=
EXTT10=
EXTT11=
EXTT12=
EXTT13=
EXTT14=
PLAYORDER=
